HIERARCHY
ROOT pelvis
{
  OFFSET 0 100 0
  CHANNELS 6 Xposition Yposition Zposition Zrotation Xrotation Yrotation
  JOINT pelvis_right_femur
  {
    OFFSET -10.78128 -3.44521 -0.5502486
    CHANNELS 3 Zrotation Xrotation Yrotation
    JOINT right_femur_tibia
    {
      OFFSET -0.8047443 -44.0398 -0.1307829
      CHANNELS 3 Zrotation Xrotation Yrotation
      JOINT right_tibia_foot
      {
        OFFSET 3.006224 -47.83518 -5
        CHANNELS 3 Zrotation Xrotation Yrotation
        End Site
        {
          OFFSET 0 -5 15
        }
      }
    }
  }
  JOINT pelvis_left_femur
  {
    OFFSET 10.78128 -3.44521 -0.5502486
    CHANNELS 3 Zrotation Xrotation Yrotation
    JOINT left_femur_tibia
    {
      OFFSET 0.8047443 -44.0398 -0.1307829
      CHANNELS 3 Zrotation Xrotation Yrotation
      JOINT left_tibia_foot
      {
        OFFSET -4.370144 -48.10324 -4.275266
        CHANNELS 3 Zrotation Xrotation Yrotation
        End Site
        {
          OFFSET 0 -5 15
        }
      }
    }
  }
  JOINT pelvis_spine1
  {
    OFFSET 0 6.468898 -3.129235
    CHANNELS 3 Zrotation Xrotation Yrotation
    JOINT spine1
    {
      OFFSET 0 23.15396 4.99043
      CHANNELS 3 Zrotation Xrotation Yrotation
      JOINT spine2
      {
        OFFSET 0 20.79997 -5.064912
        CHANNELS 3 Zrotation Xrotation Yrotation
        JOINT neck
        {
          OFFSET 0 14.38658 9.616178
          CHANNELS 3 Zrotation Xrotation Yrotation
          End Site
          {
            OFFSET 0 20 0
          }
        }
      }
      JOINT right_manubrium
      {
        OFFSET -5.722621 16.35077 3.967754
        CHANNELS 3 Zrotation Xrotation Yrotation
        JOINT right_clavicle
        {
          OFFSET -13.16364 1.694482 -4.693211
          CHANNELS 3 Zrotation Xrotation Yrotation
          JOINT right_humerus
          {
            OFFSET -28.5034 -0.3100689 -2.792744
            CHANNELS 3 Zrotation Xrotation Yrotation
            JOINT right_radius
            {
              OFFSET -25.15693 0.02248979 -1.271978
              CHANNELS 3 Zrotation Xrotation Yrotation
              End Site
              {
                OFFSET -15 0 0
              }
            }
          }
        }
      }
      JOINT left_manubrium
      {
        OFFSET 5.722621 16.35077 3.967754
        CHANNELS 3 Zrotation Xrotation Yrotation
        JOINT left_clavicle
        {
          OFFSET 13.16364 1.694482 -4.693211
          CHANNELS 3 Zrotation Xrotation Yrotation
          JOINT left_humerus
          {
            OFFSET 29.39168 -1.063119 -2.237045
            CHANNELS 3 Zrotation Xrotation Yrotation
            JOINT left_radius
            {
              OFFSET 24.59957 -0.9528479 0.9047498
              CHANNELS 3 Zrotation Xrotation Yrotation
              End Site
              {
                OFFSET 15 -0 -0
              }
            }
          }
        }
      }
    }
  }
}
MOTION
Frames: 13
Frame Time: 0.0416666666667
1388.078 91.93579 2677.625 4.613924 -2.671303 60.73019 4.615538 -20.62034 4.649593 -0 16.57585 -0 -1.427086 -3.478707 -9.309667 -3.293725 17.80002 -7.971297 -0 37.62324 -0 -8.588076 -12.29516 12.39399 -1.071711 -0.4603639 2.193195 2.067853 9.018106 -8.216977 2.184063 21.84622 5.041286 2.118261 -17.92268 6.977716 2.82424 -12.70604 10.19187 90.84395 26.01915 -23.34544 -0 0 5.454856 -16.61948 12.41286 7.177983 5.902021 -21.46099 -3.819812 -81.71108 23.32694 4.259627 0 0 -25.22495 3.043252 8.054758 9.569928
1393.963 92.7306 2681.694 5.476222 -3.413794 60.3798 5.357269 -16.28124 5.461206 -0 18.24982 -0 -1.500836 -4.428631 -9.008568 -2.97847 14.45648 -7.907578 -0 46.25894 -0 -9.259055 -9.662394 13.62224 -0.7315462 -0.1928258 2.70443 2.035888 9.383446 -7.705529 2.358984 22.28565 4.791461 2.114895 -17.69118 6.859251 3.032779 -12.98336 10.42756 90.2196 25.59846 -22.25548 -0 0 5.931738 -16.64255 12.13838 7.194354 5.242953 -20.67862 -3.832156 -83.20047 23.88385 6.100619 0 0 -22.92906 2.259002 8.120143 10.56128
1399.565 93.87058 2685.588 6.678712 -4.052193 59.73502 5.636312 -11.2527 6.046767 -0 18.8972 -0 -1.528961 -5.54723 -8.656977 -2.841446 9.532816 -7.586425 -0 53.82582 -0 -9.547656 -7.829562 15.23981 -0.6949218 0.3444378 3.542783 1.853241 9.840764 -6.952437 2.646632 22.817 4.470038 2.096205 -17.20349 6.792328 2.978752 -13.5228 10.65002 89.38624 24.90786 -20.61295 -0 0 7.084797 -17.00218 11.78073 7.412734 4.723851 -19.87986 -3.833344 -84.94981 24.29666 8.214658 0 0 -20.40844 1.470741 8.059531 11.4497
1404.837 95.1127 2689.242 7.73271 -4.43113 58.85579 5.600829 -6.220709 6.411039 -0 18.21727 -0 -1.495001 -6.545486 -8.073366 -2.697039 3.490613 -6.961593 -0 58.58568 -0 -9.409166 -6.853099 16.74111 -0.8493661 0.9617479 4.624591 1.543121 10.39285 -6.113143 2.857833 23.16502 4.238274 2.124337 -16.76272 6.707078 2.793759 -14.44873 10.94733 88.39734 24.32083 -18.69464 -0 0 8.892915 -17.66881 11.50743 7.945559 4.408489 -19.29438 -3.828184 -86.71255 24.31109 10.6495 0 0 -18.46439 0.8519769 7.765611 12.11411
1409.82 96.17504 2692.63 8.198283 -4.46674 57.8317 5.399466 -1.519134 6.509204 -0 16.52022 -0 -1.596516 -7.755759 -7.064897 -2.287328 -3.32573 -6.117691 -0 59.2755 -0 -8.891897 -6.4962 17.68067 -1.020105 1.514068 5.76508 1.151929 10.83509 -5.289744 2.849636 23.25856 4.178654 2.18239 -16.58302 6.558219 2.595096 -15.74465 11.31944 87.12678 24.20943 -16.49665 -0 0 11.3136 -18.37652 11.3178 8.772674 4.241406 -18.89228 -3.765523 -88.32573 24.01771 13.40307 0 0 -17.35138 0.4502789 7.382626 12.56006
1414.635 96.80899 2695.755 7.687757 -4.05943 56.7666 5.112078 2.797628 6.304032 -0 14.32249 -0 -1.846128 -9.703831 -5.480034 -1.385863 -10.74288 -5.100521 -0 55.17102 -0 -8.058669 -6.330814 17.81754 -1.072174 1.850334 6.796564 0.7607151 10.94931 -4.609213 2.505545 23.07081 4.357104 2.259789 -16.82349 6.304789 2.572652 -17.31949 11.74235 85.2703 25.02539 -13.89895 -0 0 14.29657 -18.98532 11.19483 9.928963 4.120143 -18.53327 -3.57314 -89.66125 23.58192 16.44335 0 0 -17.00111 0.2240763 7.001087 12.90891
1419.472 96.85438 2698.659 6.136403 -3.149229 55.78799 4.675027 6.902287 5.847071 -0 12.25986 -0 -1.816963 -12.4513 -3.383093 0.05140851 -18.49073 -3.846642 -0 46.43956 -0 -6.933892 -6.055119 17.38026 -1.062404 1.823472 7.655077 0.4449328 10.67091 -4.195656 1.827067 22.58589 4.781362 2.380725 -17.45529 5.935155 2.915917 -18.99626 12.16287 82.53252 26.98359 -10.78493 -0 0 17.68573 -19.74938 11.15852 11.5259 3.993569 -18.08589 -3.190868 -90.59642 23.0839 19.56393 0 0 -17.04052 0.07196158 6.525761 13.31409
1424.578 96.29322 2701.451 4.178739 -1.936943 55.01995 3.922095 11.05381 5.331503 -0 11.32149 -0 -0.9625594 -14.86656 -1.247651 1.596784 -25.45034 -2.489653 -0 34.87741 -0 -5.622026 -5.832618 17.1506 -1.244538 1.350069 8.359454 0.1948922 10.16445 -4.021015 1.093955 21.8983 5.289159 2.562278 -18.15007 5.551479 3.501799 -20.49817 12.42839 79.23501 29.33116 -7.34281 -0 0 21.02723 -21.13856 11.14877 13.49652 3.920606 -17.47605 -2.641921 -91.17776 22.56646 22.37621 0 0 -16.69793 -0.1813985 5.871258 13.89686
1430.164 95.33321 2704.273 2.878144 -0.9222009 54.48866 2.839688 15.01761 5.053829 -0 12.95565 -0 0.4935988 -15.14177 0.1741499 2.188028 -29.67809 -1.867834 -0 24.69408 -0 -4.487429 -5.956798 17.67167 -1.726885 0.5640535 8.904299 -0.06967465 9.731231 -3.86099 0.7417247 21.26224 5.633408 2.762057 -18.59922 5.396412 3.851331 -21.51888 12.35514 76.73087 30.60588 -4.521419 -0 0 23.55523 -22.93573 10.97037 15.26821 3.927232 -16.67385 -2.097099 -91.76295 22.15764 24.63768 0 0 -15.24339 -0.6445271 5.150107 14.68159
1436.239 94.35999 2707.203 2.673758 -0.4418041 54.17104 1.72662 17.43661 5.161252 -0 17.79184 -0 1.829873 -13.15617 0.4896294 1.373816 -30.40207 -2.429746 -0 19.80223 -0 -3.92948 -6.370955 18.29853 -2.253484 -0.1177115 9.215251 -0.3806002 9.572238 -3.647256 0.8236776 20.87804 5.767532 2.911727 -18.70955 5.525233 3.874005 -21.82554 12.07457 76.01272 30.45601 -3.370008 -0 0 24.7319 -24.25841 10.68961 16.15107 3.906062 -15.88557 -1.819237 -92.29051 21.96543 25.97259 0 0 -13.31753 -1.139366 4.495752 15.45352
1442.652 93.71004 2710.235 3.324738 -0.4904365 54.11871 0.8280666 17.40906 5.479413 -0 25.32111 -0 3.002153 -10.32687 -0.1728707 -0.1106094 -28.358 -3.501741 -0 19.4277 -0 -3.915654 -7.001085 18.32169 -2.602966 -0.4797133 9.227657 -0.7307063 9.701339 -3.546758 1.079416 20.71419 5.743524 2.930181 -18.37234 5.733946 3.842317 -21.51379 11.85266 76.77573 29.37654 -3.87353 -0 0 24.8118 -24.95718 10.63661 16.14161 3.799092 -15.37854 -1.965936 -92.2796 21.91033 26.05572 0 0 -11.931 -1.517483 3.982395 16.00711
1449.251 93.57107 2713.312 4.516312 -0.9191896 54.41519 0.1631645 15.63011 5.75869 -0 34.48288 -0 4.086264 -7.476128 -1.48177 -1.766889 -24.35817 -4.733443 -0 20.58602 -0 -4.107971 -7.816585 17.91633 -2.765677 -0.6636163 8.961516 -1.100265 10.04224 -3.590469 1.378186 20.66841 5.601264 2.762656 -17.7487 5.98754 3.693252 -20.99977 11.66836 78.55239 27.65066 -5.405253 -0 0 24.35321 -25.22864 10.85718 15.61422 3.661916 -15.1275 -2.426519 -91.83305 21.87892 25.39345 0 0 -11.03452 -1.755015 3.630367 16.31288
1455.867 93.9891 2716.349 5.890915 -1.465987 55.09236 -0.2966843 12.83817 5.840394 -0 43.49362 -0 4.917361 -4.999601 -3.025148 -3.332518 -19.2939 -5.961745 -0 21.6142 -0 -4.234207 -8.756466 17.40029 -2.840292 -0.7501032 8.469044 -1.407904 10.45712 -3.75704 1.629245 20.72906 5.453558 2.481324 -17.09713 6.29203 3.433435 -20.46641 11.4757 80.77793 25.88037 -7.356704 -0 0 23.50701 -25.11529 11.1929 14.86135 3.556634 -15.10712 -3.007447 -91.11021 21.92258 24.31293 0 0 -10.67056 -1.819447 3.425053 16.37268
